<mxfile host="app.diagrams.net" modified="2023-10-09T12:20:56.798Z" agent="Mozilla/5.0 (Windows NT 10.0; Win64; x64) AppleWebKit/537.36 (KHTML, like Gecko) Chrome/117.0.0.0 Safari/537.36" etag="22q1yUeon55y-mm1aoeo" version="22.0.4" type="device">
  <diagram name="Page-1" id="mWjmTY6AyfiN8sncxC3y">
    <mxGraphModel dx="1985" dy="834" grid="1" gridSize="10" guides="1" tooltips="1" connect="1" arrows="1" fold="1" page="1" pageScale="1" pageWidth="850" pageHeight="1100" math="0" shadow="0">
      <root>
        <mxCell id="0" />
        <mxCell id="1" parent="0" />
        <mxCell id="0-cZ43cHKWs0qEdC4-QI-1" value="Messstation" style="whiteSpace=wrap;html=1;align=center;" parent="1" vertex="1">
          <mxGeometry x="320" y="190" width="100" height="40" as="geometry" />
        </mxCell>
        <mxCell id="0-cZ43cHKWs0qEdC4-QI-2" value="MessgerÃ¤t" style="whiteSpace=wrap;html=1;align=center;" parent="1" vertex="1">
          <mxGeometry x="320" y="350" width="100" height="40" as="geometry" />
        </mxCell>
        <mxCell id="0-cZ43cHKWs0qEdC4-QI-3" value="Mitarbeiter" style="whiteSpace=wrap;html=1;align=center;" parent="1" vertex="1">
          <mxGeometry x="320" y="30" width="100" height="40" as="geometry" />
        </mxCell>
        <mxCell id="0-cZ43cHKWs0qEdC4-QI-4" value="Verarbeitungszentrum" style="whiteSpace=wrap;html=1;align=center;" parent="1" vertex="1">
          <mxGeometry x="595" y="350" width="130" height="40" as="geometry" />
        </mxCell>
        <mxCell id="0-cZ43cHKWs0qEdC4-QI-5" value="Region" style="whiteSpace=wrap;html=1;align=center;" parent="1" vertex="1">
          <mxGeometry x="610" y="190" width="100" height="40" as="geometry" />
        </mxCell>
        <mxCell id="0-cZ43cHKWs0qEdC4-QI-6" value="Wetterelement" style="whiteSpace=wrap;html=1;align=center;" parent="1" vertex="1">
          <mxGeometry x="40" y="190" width="100" height="40" as="geometry" />
        </mxCell>
        <mxCell id="0-cZ43cHKWs0qEdC4-QI-7" value="hat" style="shape=rhombus;perimeter=rhombusPerimeter;whiteSpace=wrap;html=1;align=center;" parent="1" vertex="1">
          <mxGeometry x="170" y="180" width="120" height="60" as="geometry" />
        </mxCell>
        <mxCell id="0-cZ43cHKWs0qEdC4-QI-8" value="hat" style="shape=rhombus;perimeter=rhombusPerimeter;whiteSpace=wrap;html=1;align=center;" parent="1" vertex="1">
          <mxGeometry x="310" y="100" width="120" height="60" as="geometry" />
        </mxCell>
        <mxCell id="0-cZ43cHKWs0qEdC4-QI-9" value="hat" style="shape=rhombus;perimeter=rhombusPerimeter;whiteSpace=wrap;html=1;align=center;" parent="1" vertex="1">
          <mxGeometry x="450" y="180" width="120" height="60" as="geometry" />
        </mxCell>
        <mxCell id="0-cZ43cHKWs0qEdC4-QI-10" value="hat" style="shape=rhombus;perimeter=rhombusPerimeter;whiteSpace=wrap;html=1;align=center;" parent="1" vertex="1">
          <mxGeometry x="310" y="260" width="120" height="60" as="geometry" />
        </mxCell>
        <mxCell id="0-cZ43cHKWs0qEdC4-QI-11" value="hat" style="shape=rhombus;perimeter=rhombusPerimeter;whiteSpace=wrap;html=1;align=center;" parent="1" vertex="1">
          <mxGeometry x="450" y="260" width="120" height="60" as="geometry" />
        </mxCell>
        <mxCell id="0-cZ43cHKWs0qEdC4-QI-12" value="" style="endArrow=none;html=1;rounded=0;" parent="1" source="0-cZ43cHKWs0qEdC4-QI-7" target="0-cZ43cHKWs0qEdC4-QI-1" edge="1">
          <mxGeometry relative="1" as="geometry">
            <mxPoint x="370" y="250" as="sourcePoint" />
            <mxPoint x="530" y="250" as="targetPoint" />
          </mxGeometry>
        </mxCell>
        <mxCell id="0-cZ43cHKWs0qEdC4-QI-22" value="1" style="edgeLabel;html=1;align=center;verticalAlign=middle;resizable=0;points=[];" parent="0-cZ43cHKWs0qEdC4-QI-12" vertex="1" connectable="0">
          <mxGeometry x="-0.0222" relative="1" as="geometry">
            <mxPoint as="offset" />
          </mxGeometry>
        </mxCell>
        <mxCell id="0-cZ43cHKWs0qEdC4-QI-13" value="1" style="endArrow=none;html=1;rounded=0;" parent="1" source="0-cZ43cHKWs0qEdC4-QI-10" target="0-cZ43cHKWs0qEdC4-QI-1" edge="1">
          <mxGeometry x="0.3333" relative="1" as="geometry">
            <mxPoint x="380" y="260" as="sourcePoint" />
            <mxPoint x="540" y="260" as="targetPoint" />
            <mxPoint as="offset" />
          </mxGeometry>
        </mxCell>
        <mxCell id="0-cZ43cHKWs0qEdC4-QI-14" value="" style="endArrow=none;html=1;rounded=0;" parent="1" source="0-cZ43cHKWs0qEdC4-QI-1" target="0-cZ43cHKWs0qEdC4-QI-11" edge="1">
          <mxGeometry relative="1" as="geometry">
            <mxPoint x="390" y="270" as="sourcePoint" />
            <mxPoint x="550" y="270" as="targetPoint" />
          </mxGeometry>
        </mxCell>
        <mxCell id="0-cZ43cHKWs0qEdC4-QI-25" value="N" style="edgeLabel;html=1;align=center;verticalAlign=middle;resizable=0;points=[];" parent="0-cZ43cHKWs0qEdC4-QI-14" vertex="1" connectable="0">
          <mxGeometry x="-0.4629" y="1" relative="1" as="geometry">
            <mxPoint as="offset" />
          </mxGeometry>
        </mxCell>
        <mxCell id="0-cZ43cHKWs0qEdC4-QI-15" value="" style="endArrow=none;html=1;rounded=0;" parent="1" source="0-cZ43cHKWs0qEdC4-QI-1" target="0-cZ43cHKWs0qEdC4-QI-9" edge="1">
          <mxGeometry relative="1" as="geometry">
            <mxPoint x="400" y="280" as="sourcePoint" />
            <mxPoint x="560" y="280" as="targetPoint" />
          </mxGeometry>
        </mxCell>
        <mxCell id="0-cZ43cHKWs0qEdC4-QI-24" value="N" style="edgeLabel;html=1;align=center;verticalAlign=middle;resizable=0;points=[];" parent="0-cZ43cHKWs0qEdC4-QI-15" vertex="1" connectable="0">
          <mxGeometry x="-0.3" y="1" relative="1" as="geometry">
            <mxPoint as="offset" />
          </mxGeometry>
        </mxCell>
        <mxCell id="0-cZ43cHKWs0qEdC4-QI-16" value="" style="endArrow=none;html=1;rounded=0;" parent="1" source="0-cZ43cHKWs0qEdC4-QI-8" target="0-cZ43cHKWs0qEdC4-QI-1" edge="1">
          <mxGeometry relative="1" as="geometry">
            <mxPoint x="410" y="290" as="sourcePoint" />
            <mxPoint x="570" y="290" as="targetPoint" />
          </mxGeometry>
        </mxCell>
        <mxCell id="0-cZ43cHKWs0qEdC4-QI-23" value="N" style="edgeLabel;html=1;align=center;verticalAlign=middle;resizable=0;points=[];" parent="0-cZ43cHKWs0qEdC4-QI-16" vertex="1" connectable="0">
          <mxGeometry x="0.0444" relative="1" as="geometry">
            <mxPoint as="offset" />
          </mxGeometry>
        </mxCell>
        <mxCell id="0-cZ43cHKWs0qEdC4-QI-17" value="" style="endArrow=none;html=1;rounded=0;" parent="1" source="0-cZ43cHKWs0qEdC4-QI-6" target="0-cZ43cHKWs0qEdC4-QI-7" edge="1">
          <mxGeometry relative="1" as="geometry">
            <mxPoint x="420" y="300" as="sourcePoint" />
            <mxPoint x="580" y="300" as="targetPoint" />
          </mxGeometry>
        </mxCell>
        <mxCell id="0-cZ43cHKWs0qEdC4-QI-29" value="N" style="edgeLabel;html=1;align=center;verticalAlign=middle;resizable=0;points=[];" parent="0-cZ43cHKWs0qEdC4-QI-17" vertex="1" connectable="0">
          <mxGeometry x="-0.5222" y="3" relative="1" as="geometry">
            <mxPoint y="3" as="offset" />
          </mxGeometry>
        </mxCell>
        <mxCell id="0-cZ43cHKWs0qEdC4-QI-18" value="" style="endArrow=none;html=1;rounded=0;" parent="1" source="0-cZ43cHKWs0qEdC4-QI-10" target="0-cZ43cHKWs0qEdC4-QI-2" edge="1">
          <mxGeometry relative="1" as="geometry">
            <mxPoint x="430" y="310" as="sourcePoint" />
            <mxPoint x="590" y="310" as="targetPoint" />
          </mxGeometry>
        </mxCell>
        <mxCell id="0-cZ43cHKWs0qEdC4-QI-28" value="N" style="edgeLabel;html=1;align=center;verticalAlign=middle;resizable=0;points=[];" parent="0-cZ43cHKWs0qEdC4-QI-18" vertex="1" connectable="0">
          <mxGeometry x="0.1556" y="-1" relative="1" as="geometry">
            <mxPoint as="offset" />
          </mxGeometry>
        </mxCell>
        <mxCell id="0-cZ43cHKWs0qEdC4-QI-19" value="" style="endArrow=none;html=1;rounded=0;" parent="1" source="0-cZ43cHKWs0qEdC4-QI-11" target="0-cZ43cHKWs0qEdC4-QI-4" edge="1">
          <mxGeometry relative="1" as="geometry">
            <mxPoint x="440" y="320" as="sourcePoint" />
            <mxPoint x="600" y="320" as="targetPoint" />
          </mxGeometry>
        </mxCell>
        <mxCell id="0-cZ43cHKWs0qEdC4-QI-27" value="1" style="edgeLabel;html=1;align=center;verticalAlign=middle;resizable=0;points=[];" parent="0-cZ43cHKWs0qEdC4-QI-19" vertex="1" connectable="0">
          <mxGeometry x="0.4884" y="-1" relative="1" as="geometry">
            <mxPoint y="1" as="offset" />
          </mxGeometry>
        </mxCell>
        <mxCell id="0-cZ43cHKWs0qEdC4-QI-20" value="" style="endArrow=none;html=1;rounded=0;" parent="1" source="0-cZ43cHKWs0qEdC4-QI-9" target="0-cZ43cHKWs0qEdC4-QI-5" edge="1">
          <mxGeometry relative="1" as="geometry">
            <mxPoint x="450" y="330" as="sourcePoint" />
            <mxPoint x="610" y="330" as="targetPoint" />
          </mxGeometry>
        </mxCell>
        <mxCell id="0-cZ43cHKWs0qEdC4-QI-26" value="1" style="edgeLabel;html=1;align=center;verticalAlign=middle;resizable=0;points=[];" parent="0-cZ43cHKWs0qEdC4-QI-20" vertex="1" connectable="0">
          <mxGeometry x="0.3583" y="-1" relative="1" as="geometry">
            <mxPoint as="offset" />
          </mxGeometry>
        </mxCell>
        <mxCell id="0-cZ43cHKWs0qEdC4-QI-21" value="" style="endArrow=none;html=1;rounded=0;" parent="1" source="0-cZ43cHKWs0qEdC4-QI-3" target="0-cZ43cHKWs0qEdC4-QI-8" edge="1">
          <mxGeometry relative="1" as="geometry">
            <mxPoint x="460" y="340" as="sourcePoint" />
            <mxPoint x="620" y="340" as="targetPoint" />
          </mxGeometry>
        </mxCell>
        <mxCell id="0-cZ43cHKWs0qEdC4-QI-30" value="M" style="edgeLabel;html=1;align=center;verticalAlign=middle;resizable=0;points=[];" parent="0-cZ43cHKWs0qEdC4-QI-21" vertex="1" connectable="0">
          <mxGeometry x="-0.4" y="-1" relative="1" as="geometry">
            <mxPoint as="offset" />
          </mxGeometry>
        </mxCell>
        <mxCell id="0-cZ43cHKWs0qEdC4-QI-31" value="Niederschlag" style="ellipse;whiteSpace=wrap;html=1;align=center;" parent="1" vertex="1">
          <mxGeometry x="40" y="120" width="100" height="40" as="geometry" />
        </mxCell>
        <mxCell id="0-cZ43cHKWs0qEdC4-QI-32" value="Luftdruck" style="ellipse;whiteSpace=wrap;html=1;align=center;" parent="1" vertex="1">
          <mxGeometry x="150" y="120" width="100" height="40" as="geometry" />
        </mxCell>
        <mxCell id="0-cZ43cHKWs0qEdC4-QI-33" value="Temperatur" style="ellipse;whiteSpace=wrap;html=1;align=center;" parent="1" vertex="1">
          <mxGeometry x="40" y="260" width="100" height="40" as="geometry" />
        </mxCell>
        <mxCell id="0-cZ43cHKWs0qEdC4-QI-34" value="" style="endArrow=none;html=1;rounded=0;" parent="1" source="0-cZ43cHKWs0qEdC4-QI-6" target="0-cZ43cHKWs0qEdC4-QI-33" edge="1">
          <mxGeometry relative="1" as="geometry">
            <mxPoint x="370" y="250" as="sourcePoint" />
            <mxPoint x="530" y="250" as="targetPoint" />
          </mxGeometry>
        </mxCell>
        <mxCell id="0-cZ43cHKWs0qEdC4-QI-35" value="" style="endArrow=none;html=1;rounded=0;" parent="1" source="0-cZ43cHKWs0qEdC4-QI-31" target="0-cZ43cHKWs0qEdC4-QI-6" edge="1">
          <mxGeometry relative="1" as="geometry">
            <mxPoint x="150" y="225" as="sourcePoint" />
            <mxPoint x="540" y="260" as="targetPoint" />
          </mxGeometry>
        </mxCell>
        <mxCell id="0-cZ43cHKWs0qEdC4-QI-36" value="" style="endArrow=none;html=1;rounded=0;" parent="1" source="0-cZ43cHKWs0qEdC4-QI-6" target="0-cZ43cHKWs0qEdC4-QI-32" edge="1">
          <mxGeometry relative="1" as="geometry">
            <mxPoint x="160" y="235" as="sourcePoint" />
            <mxPoint x="550" y="270" as="targetPoint" />
          </mxGeometry>
        </mxCell>
      </root>
    </mxGraphModel>
  </diagram>
</mxfile>
